<svg width="192" height="26" viewBox="0 0 192 26" fill="none" xmlns="http://www.w3.org/2000/svg">
<path d="M9.112 23.288C8.10933 23.288 7.13867 23.2027 6.2 23.032C5.26133 22.8827 4.376 22.648 3.544 22.328C2.712 22.008 1.96533 21.6133 1.304 21.144C1.02667 20.952 0.824 20.7173 0.696 20.44C0.589333 20.1627 0.557333 19.896 0.6 19.64C0.664 19.3627 0.781333 19.128 0.952 18.936C1.144 18.744 1.368 18.6267 1.624 18.584C1.88 18.5413 2.15733 18.6267 2.456 18.84C3.43733 19.5013 4.46133 19.9813 5.528 20.28C6.616 20.5787 7.81067 20.728 9.112 20.728C10.9893 20.728 12.3653 20.3867 13.24 19.704C14.136 19.0213 14.584 18.1253 14.584 17.016C14.584 16.0987 14.264 15.384 13.624 14.872C12.984 14.3387 11.9067 13.9227 10.392 13.624L7 12.92C4.99467 12.4933 3.49067 11.7893 2.488 10.808C1.50667 9.82667 1.016 8.51467 1.016 6.872C1.016 5.86933 1.21867 4.96267 1.624 4.152C2.02933 3.32 2.60533 2.60533 3.352 2.008C4.09867 1.41067 4.97333 0.951999 5.976 0.631998C7 0.311998 8.13067 0.151999 9.368 0.151999C10.6907 0.151999 11.928 0.333332 13.08 0.695999C14.2533 1.05867 15.3093 1.592 16.248 2.296C16.504 2.488 16.6747 2.72267 16.76 3C16.8453 3.256 16.856 3.512 16.792 3.768C16.7493 4.024 16.632 4.23733 16.44 4.408C16.2693 4.57867 16.0453 4.67467 15.768 4.696C15.512 4.71733 15.224 4.62133 14.904 4.408C14.0507 3.81067 13.176 3.384 12.28 3.128C11.384 2.85067 10.4027 2.712 9.336 2.712C8.248 2.712 7.29867 2.88267 6.488 3.224C5.69867 3.56533 5.08 4.04533 4.632 4.664C4.20533 5.26133 3.992 5.96533 3.992 6.776C3.992 7.75733 4.29067 8.52533 4.888 9.08C5.48533 9.63467 6.488 10.0613 7.896 10.36L11.256 11.032C13.3893 11.48 14.968 12.1733 15.992 13.112C17.0373 14.0293 17.56 15.2667 17.56 16.824C17.56 17.8053 17.3573 18.6907 16.952 19.48C16.568 20.2693 16.0133 20.952 15.288 21.528C14.5627 22.0827 13.6773 22.52 12.632 22.84C11.5867 23.1387 10.4133 23.288 9.112 23.288ZM28.6372 23.288C26.9519 23.288 25.5012 22.968 24.2852 22.328C23.0906 21.6667 22.1626 20.7387 21.5012 19.544C20.8399 18.328 20.5092 16.8987 20.5092 15.256C20.5092 13.6347 20.8292 12.216 21.4692 11C22.1306 9.784 23.0266 8.83467 24.1572 8.152C25.3093 7.46933 26.6213 7.128 28.0933 7.128C29.1386 7.128 30.0773 7.30933 30.9093 7.672C31.7626 8.01333 32.4879 8.51467 33.0852 9.176C33.6826 9.83733 34.1306 10.648 34.4293 11.608C34.7493 12.5467 34.9093 13.6133 34.9093 14.808C34.9093 15.1493 34.8026 15.416 34.5893 15.608C34.3973 15.7787 34.1093 15.864 33.7253 15.864H22.7812V14.008H32.9893L32.4453 14.456C32.4453 13.3467 32.2746 12.408 31.9333 11.64C31.6133 10.8507 31.1332 10.2533 30.4932 9.848C29.8746 9.44267 29.0959 9.24 28.1573 9.24C27.1333 9.24 26.2586 9.48533 25.5332 9.976C24.8079 10.4453 24.2532 11.1173 23.8692 11.992C23.4852 12.8453 23.2933 13.8373 23.2933 14.968V15.16C23.2933 17.08 23.7519 18.5307 24.6693 19.512C25.5866 20.4933 26.9092 20.984 28.6372 20.984C29.3199 20.984 30.0133 20.8987 30.7172 20.728C31.4426 20.5573 32.1359 20.248 32.7973 19.8C33.1173 19.608 33.4053 19.5227 33.6613 19.544C33.9386 19.544 34.1626 19.6293 34.3333 19.8C34.5039 19.9493 34.6106 20.1413 34.6533 20.376C34.6959 20.5893 34.6639 20.824 34.5573 21.08C34.4506 21.336 34.2479 21.56 33.9493 21.752C33.2453 22.2427 32.4026 22.6267 31.4213 22.904C30.4612 23.16 29.5332 23.288 28.6372 23.288ZM43.811 23.288C42.7443 23.288 41.7737 23.0747 40.899 22.648C40.0457 22.2213 39.3737 21.6453 38.883 20.92C38.4137 20.1947 38.179 19.384 38.179 18.488C38.179 17.336 38.467 16.4293 39.043 15.768C39.619 15.1067 40.5897 14.6373 41.955 14.36C43.3203 14.0613 45.155 13.912 47.459 13.912H48.963V15.768H47.523C45.8803 15.768 44.579 15.8427 43.619 15.992C42.6803 16.1413 42.019 16.408 41.635 16.792C41.251 17.1547 41.059 17.6667 41.059 18.328C41.059 19.16 41.347 19.8427 41.923 20.376C42.5203 20.9093 43.331 21.176 44.355 21.176C45.1657 21.176 45.8803 20.984 46.499 20.6C47.1177 20.1947 47.6083 19.6613 47.971 19C48.3337 18.3173 48.515 17.5387 48.515 16.664V12.984C48.515 11.7253 48.259 10.8187 47.747 10.264C47.235 9.688 46.371 9.4 45.155 9.4C44.451 9.4 43.7257 9.496 42.979 9.688C42.2323 9.88 41.4537 10.1787 40.643 10.584C40.323 10.7333 40.0457 10.7867 39.811 10.744C39.5763 10.68 39.3843 10.552 39.235 10.36C39.107 10.1467 39.0323 9.92267 39.011 9.688C39.011 9.432 39.0643 9.18667 39.171 8.952C39.299 8.71733 39.5123 8.54667 39.811 8.44C40.7497 7.97067 41.6777 7.64 42.595 7.448C43.5337 7.23467 44.4083 7.128 45.219 7.128C46.6057 7.128 47.747 7.352 48.643 7.8C49.539 8.22667 50.211 8.89867 50.659 9.816C51.107 10.712 51.331 11.864 51.331 13.272V21.72C51.331 22.2107 51.2137 22.584 50.979 22.84C50.7443 23.096 50.403 23.224 49.955 23.224C49.5283 23.224 49.187 23.096 48.931 22.84C48.6963 22.584 48.579 22.2107 48.579 21.72V19.448H48.867C48.6963 20.2373 48.3763 20.92 47.907 21.496C47.4377 22.072 46.851 22.52 46.147 22.84C45.4643 23.1387 44.6857 23.288 43.811 23.288ZM57.7375 23.224C57.2468 23.224 56.8735 23.096 56.6175 22.84C56.3615 22.584 56.2335 22.2107 56.2335 21.72V8.664C56.2335 8.17333 56.3615 7.81067 56.6175 7.576C56.8735 7.32 57.2255 7.192 57.6735 7.192C58.1215 7.192 58.4628 7.32 58.6975 7.576C58.9535 7.81067 59.0815 8.17333 59.0815 8.664V11.128H58.7615C59.1028 9.848 59.7428 8.87733 60.6815 8.216C61.6202 7.55467 62.8042 7.18133 64.2335 7.096C64.5748 7.07467 64.8522 7.16 65.0655 7.352C65.2788 7.52267 65.3962 7.82133 65.4175 8.248C65.4388 8.65333 65.3428 8.984 65.1295 9.24C64.9162 9.47467 64.5855 9.61333 64.1375 9.656L63.5615 9.688C62.1535 9.83733 61.0655 10.296 60.2975 11.064C59.5508 11.832 59.1775 12.888 59.1775 14.232V21.72C59.1775 22.2107 59.0495 22.584 58.7935 22.84C58.5588 23.096 58.2068 23.224 57.7375 23.224ZM74.7742 23.288C73.1956 23.288 71.8302 22.9573 70.6782 22.296C69.5262 21.6133 68.6409 20.664 68.0222 19.448C67.4036 18.2107 67.0942 16.76 67.0942 15.096C67.0942 13.8587 67.2649 12.7493 67.6062 11.768C67.9689 10.7867 68.4809 9.95467 69.1422 9.272C69.8036 8.568 70.6036 8.03467 71.5422 7.672C72.5022 7.30933 73.5796 7.128 74.7742 7.128C75.5209 7.128 76.3102 7.24533 77.1422 7.48C77.9742 7.71467 78.7422 8.09867 79.4462 8.632C79.6809 8.80267 79.8302 9.00533 79.8942 9.24C79.9582 9.45333 79.9582 9.67733 79.8942 9.912C79.8516 10.1467 79.7449 10.3493 79.5742 10.52C79.4249 10.6693 79.2222 10.7547 78.9662 10.776C78.7316 10.7973 78.4756 10.7227 78.1982 10.552C77.6862 10.168 77.1422 9.89067 76.5662 9.72C76.0116 9.54933 75.4782 9.464 74.9662 9.464C74.1769 9.464 73.4729 9.592 72.8542 9.848C72.2569 10.104 71.7449 10.4773 71.3182 10.968C70.9129 11.4373 70.6036 12.024 70.3902 12.728C70.1769 13.4107 70.0702 14.2107 70.0702 15.128C70.0702 16.9413 70.4969 18.3707 71.3502 19.416C72.2036 20.44 73.4089 20.952 74.9662 20.952C75.4782 20.952 76.0116 20.8773 76.5662 20.728C77.1209 20.5573 77.6649 20.28 78.1982 19.896C78.4756 19.7253 78.7316 19.6613 78.9662 19.704C79.2009 19.7253 79.3929 19.8213 79.5422 19.992C79.7129 20.1413 79.8196 20.3333 79.8622 20.568C79.9049 20.7813 79.8836 21.0053 79.7982 21.24C79.7342 21.4747 79.5849 21.6667 79.3502 21.816C78.6676 22.328 77.9209 22.7013 77.1102 22.936C76.2996 23.1707 75.5209 23.288 74.7742 23.288ZM84.6572 23.224C84.2092 23.224 83.8572 23.096 83.6012 22.84C83.3452 22.584 83.2172 22.2107 83.2172 21.72V1.688C83.2172 1.19733 83.3452 0.834666 83.6012 0.599998C83.8572 0.343999 84.2092 0.216 84.6572 0.216C85.1266 0.216 85.4892 0.343999 85.7452 0.599998C86.0012 0.834666 86.1292 1.19733 86.1292 1.688V10.808H85.7132C86.1612 9.592 86.8866 8.67467 87.8892 8.056C88.9132 7.43733 90.0759 7.128 91.3772 7.128C92.6359 7.128 93.6706 7.36267 94.4812 7.832C95.2919 8.28 95.8999 8.96267 96.3052 9.88C96.7106 10.7973 96.9132 11.9493 96.9132 13.336V21.72C96.9132 22.2107 96.7852 22.584 96.5292 22.84C96.2946 23.096 95.9426 23.224 95.4732 23.224C95.0039 23.224 94.6412 23.096 94.3852 22.84C94.1292 22.584 94.0012 22.2107 94.0012 21.72V13.496C94.0012 12.1093 93.7346 11.096 93.2012 10.456C92.6679 9.816 91.8146 9.496 90.6412 9.496C89.2759 9.496 88.1772 9.92267 87.3452 10.776C86.5346 11.608 86.1292 12.7387 86.1292 14.168V21.72C86.1292 22.7227 85.6386 23.224 84.6572 23.224Z" fill="#0069CA"/>
<path d="M116.465 23.288C115.1 23.288 113.895 22.968 112.849 22.328C111.825 21.6667 111.025 20.728 110.449 19.512C109.873 18.2747 109.585 16.8347 109.585 15.192C109.585 13.528 109.863 12.0987 110.417 10.904C110.993 9.688 111.793 8.76 112.817 8.12C113.863 7.45867 115.079 7.128 116.465 7.128C117.852 7.128 119.047 7.48 120.049 8.184C121.052 8.86667 121.724 9.784 122.065 10.936H121.713V1.688C121.713 1.19733 121.831 0.834666 122.065 0.599998C122.321 0.343999 122.684 0.216 123.153 0.216C123.623 0.216 123.985 0.343999 124.241 0.599998C124.497 0.834666 124.625 1.19733 124.625 1.688V21.72C124.625 22.2107 124.497 22.584 124.241 22.84C123.985 23.096 123.623 23.224 123.153 23.224C122.705 23.224 122.353 23.096 122.097 22.84C121.841 22.584 121.713 22.2107 121.713 21.72V18.808L122.065 19.384C121.745 20.5787 121.073 21.528 120.049 22.232C119.047 22.936 117.852 23.288 116.465 23.288ZM117.137 20.984C118.076 20.984 118.887 20.76 119.569 20.312C120.273 19.864 120.807 19.2133 121.169 18.36C121.553 17.5067 121.745 16.4507 121.745 15.192C121.745 13.3147 121.329 11.8853 120.497 10.904C119.665 9.92267 118.545 9.432 117.137 9.432C116.22 9.432 115.409 9.656 114.705 10.104C114.023 10.5307 113.489 11.1707 113.105 12.024C112.721 12.8773 112.529 13.9333 112.529 15.192C112.529 17.0693 112.945 18.5093 113.777 19.512C114.631 20.4933 115.751 20.984 117.137 20.984ZM128.943 25.4C128.58 25.4 128.271 25.2827 128.015 25.048C127.78 24.8347 127.663 24.5573 127.663 24.216C127.663 23.8747 127.78 23.5867 128.015 23.352C128.271 23.1173 128.58 23 128.943 23H141.647C142.009 23 142.308 23.1173 142.543 23.352C142.777 23.5867 142.895 23.8747 142.895 24.216C142.895 24.5573 142.777 24.8347 142.543 25.048C142.308 25.2827 142.009 25.4 141.647 25.4H128.943ZM153.135 23.288C151.449 23.288 149.999 22.968 148.783 22.328C147.588 21.6667 146.66 20.7387 145.999 19.544C145.337 18.328 145.007 16.8987 145.007 15.256C145.007 13.6347 145.327 12.216 145.967 11C146.628 9.784 147.524 8.83467 148.655 8.152C149.807 7.46933 151.119 7.128 152.591 7.128C153.636 7.128 154.575 7.30933 155.407 7.672C156.26 8.01333 156.985 8.51467 157.583 9.176C158.18 9.83733 158.628 10.648 158.927 11.608C159.247 12.5467 159.407 13.6133 159.407 14.808C159.407 15.1493 159.3 15.416 159.087 15.608C158.895 15.7787 158.607 15.864 158.223 15.864H147.279V14.008H157.487L156.943 14.456C156.943 13.3467 156.772 12.408 156.431 11.64C156.111 10.8507 155.631 10.2533 154.991 9.848C154.372 9.44267 153.593 9.24 152.655 9.24C151.631 9.24 150.756 9.48533 150.031 9.976C149.305 10.4453 148.751 11.1173 148.367 11.992C147.983 12.8453 147.791 13.8373 147.791 14.968V15.16C147.791 17.08 148.249 18.5307 149.167 19.512C150.084 20.4933 151.407 20.984 153.135 20.984C153.817 20.984 154.511 20.8987 155.215 20.728C155.94 20.5573 156.633 20.248 157.295 19.8C157.615 19.608 157.903 19.5227 158.159 19.544C158.436 19.544 158.66 19.6293 158.831 19.8C159.001 19.9493 159.108 20.1413 159.151 20.376C159.193 20.5893 159.161 20.824 159.055 21.08C158.948 21.336 158.745 21.56 158.447 21.752C157.743 22.2427 156.9 22.6267 155.919 22.904C154.959 23.16 154.031 23.288 153.135 23.288ZM169.05 23.224C168.644 23.224 168.292 23.1173 167.994 22.904C167.695 22.6907 167.439 22.3493 167.226 21.88L161.786 9.208C161.636 8.84533 161.583 8.51467 161.626 8.216C161.668 7.91733 161.807 7.672 162.042 7.48C162.298 7.288 162.639 7.192 163.066 7.192C163.428 7.192 163.716 7.27733 163.93 7.448C164.143 7.61867 164.346 7.91733 164.538 8.344L169.562 20.728H168.666L173.818 8.344C173.988 7.91733 174.18 7.61867 174.394 7.448C174.628 7.27733 174.948 7.192 175.354 7.192C175.716 7.192 175.994 7.288 176.186 7.48C176.399 7.672 176.527 7.91733 176.57 8.216C176.612 8.51467 176.548 8.83467 176.378 9.176L170.906 21.88C170.714 22.3493 170.458 22.6907 170.138 22.904C169.839 23.1173 169.476 23.224 169.05 23.224ZM185.076 23.288C184.116 23.288 183.145 23.1813 182.164 22.968C181.204 22.7333 180.297 22.3387 179.444 21.784C179.209 21.6347 179.038 21.4533 178.932 21.24C178.846 21.0053 178.814 20.7813 178.836 20.568C178.878 20.3333 178.974 20.1307 179.124 19.96C179.273 19.7893 179.454 19.6933 179.668 19.672C179.902 19.6293 180.148 19.6827 180.404 19.832C181.236 20.3013 182.036 20.632 182.804 20.824C183.593 21.016 184.372 21.112 185.14 21.112C186.313 21.112 187.198 20.8987 187.796 20.472C188.393 20.0453 188.692 19.48 188.692 18.776C188.692 18.1787 188.489 17.72 188.084 17.4C187.7 17.0587 187.092 16.8027 186.26 16.632L183.284 16.024C181.961 15.7253 180.958 15.2347 180.276 14.552C179.614 13.848 179.284 12.952 179.284 11.864C179.284 10.904 179.54 10.072 180.052 9.368C180.585 8.64267 181.321 8.088 182.26 7.704C183.198 7.32 184.276 7.128 185.492 7.128C186.43 7.128 187.316 7.256 188.148 7.512C189.001 7.74667 189.769 8.10933 190.452 8.6C190.708 8.74933 190.868 8.94133 190.932 9.176C191.017 9.38933 191.028 9.61333 190.964 9.848C190.921 10.0613 190.825 10.2427 190.676 10.392C190.526 10.5413 190.334 10.6373 190.1 10.68C189.865 10.7013 189.609 10.6373 189.332 10.488C188.713 10.0613 188.073 9.76267 187.412 9.592C186.772 9.4 186.132 9.304 185.492 9.304C184.34 9.304 183.465 9.528 182.868 9.976C182.292 10.424 182.004 11.0107 182.004 11.736C182.004 12.2907 182.174 12.7493 182.516 13.112C182.878 13.4747 183.444 13.7413 184.212 13.912L187.188 14.52C188.574 14.8187 189.62 15.2987 190.324 15.96C191.028 16.6 191.38 17.4747 191.38 18.584C191.38 20.0347 190.804 21.1867 189.652 22.04C188.521 22.872 186.996 23.288 185.076 23.288Z" fill="#8C19D2"/>
</svg>
